<mxfile host="app.diagrams.net" modified="2022-08-26T23:14:35.572Z" agent="5.0 (X11)" etag="wStk5kaw5YtFrlscGs34" version="20.2.6" type="github">
  <diagram id="3iN942L6bnzksWgwHZ0S" name="Page-1">
    <mxGraphModel dx="1422" dy="719" grid="1" gridSize="10" guides="1" tooltips="1" connect="1" arrows="1" fold="1" page="1" pageScale="1" pageWidth="827" pageHeight="1169" math="0" shadow="0">
      <root>
        <mxCell id="0" />
        <mxCell id="1" parent="0" />
        <mxCell id="7VPWDLyuM5dmn-g3taPW-9" value="" style="edgeStyle=orthogonalEdgeStyle;rounded=0;orthogonalLoop=1;jettySize=auto;html=1;" parent="1" source="7VPWDLyuM5dmn-g3taPW-1" target="7VPWDLyuM5dmn-g3taPW-8" edge="1">
          <mxGeometry relative="1" as="geometry" />
        </mxCell>
        <mxCell id="XoySndEuFInHHLppSw53-1" style="edgeStyle=orthogonalEdgeStyle;rounded=0;orthogonalLoop=1;jettySize=auto;html=1;exitX=0;exitY=0.5;exitDx=0;exitDy=0;exitPerimeter=0;" edge="1" parent="1" source="7VPWDLyuM5dmn-g3taPW-1">
          <mxGeometry relative="1" as="geometry">
            <mxPoint x="120" y="70" as="targetPoint" />
          </mxGeometry>
        </mxCell>
        <mxCell id="7VPWDLyuM5dmn-g3taPW-1" value="Start" style="strokeWidth=2;html=1;shape=mxgraph.flowchart.terminator;whiteSpace=wrap;" parent="1" vertex="1">
          <mxGeometry x="320" y="30" width="100" height="60" as="geometry" />
        </mxCell>
        <mxCell id="7VPWDLyuM5dmn-g3taPW-37" value="" style="edgeStyle=orthogonalEdgeStyle;rounded=0;orthogonalLoop=1;jettySize=auto;html=1;" parent="1" source="7VPWDLyuM5dmn-g3taPW-8" edge="1">
          <mxGeometry relative="1" as="geometry">
            <mxPoint x="370" y="290" as="targetPoint" />
          </mxGeometry>
        </mxCell>
        <mxCell id="7VPWDLyuM5dmn-g3taPW-8" value="Input (ls)" style="shape=parallelogram;perimeter=parallelogramPerimeter;whiteSpace=wrap;html=1;fixedSize=1;strokeWidth=2;" parent="1" vertex="1">
          <mxGeometry x="310" y="170" width="120" height="60" as="geometry" />
        </mxCell>
        <mxCell id="7VPWDLyuM5dmn-g3taPW-18" value="" style="edgeStyle=orthogonalEdgeStyle;rounded=0;orthogonalLoop=1;jettySize=auto;html=1;" parent="1" source="7VPWDLyuM5dmn-g3taPW-15" target="7VPWDLyuM5dmn-g3taPW-17" edge="1">
          <mxGeometry relative="1" as="geometry" />
        </mxCell>
        <mxCell id="7VPWDLyuM5dmn-g3taPW-20" value="" style="edgeStyle=orthogonalEdgeStyle;rounded=0;orthogonalLoop=1;jettySize=auto;html=1;" parent="1" source="7VPWDLyuM5dmn-g3taPW-15" target="7VPWDLyuM5dmn-g3taPW-19" edge="1">
          <mxGeometry relative="1" as="geometry" />
        </mxCell>
        <mxCell id="7VPWDLyuM5dmn-g3taPW-15" value="Valid command?" style="rhombus;whiteSpace=wrap;html=1;strokeWidth=2;" parent="1" vertex="1">
          <mxGeometry x="320" y="470" width="100" height="90" as="geometry" />
        </mxCell>
        <mxCell id="7VPWDLyuM5dmn-g3taPW-33" style="edgeStyle=orthogonalEdgeStyle;rounded=0;orthogonalLoop=1;jettySize=auto;html=1;exitX=0;exitY=0.5;exitDx=0;exitDy=0;entryX=0;entryY=0.5;entryDx=0;entryDy=0;" parent="1" source="7VPWDLyuM5dmn-g3taPW-17" target="7VPWDLyuM5dmn-g3taPW-8" edge="1">
          <mxGeometry relative="1" as="geometry">
            <mxPoint x="90" y="100" as="targetPoint" />
            <Array as="points">
              <mxPoint x="110" y="510" />
              <mxPoint x="110" y="200" />
            </Array>
          </mxGeometry>
        </mxCell>
        <mxCell id="7VPWDLyuM5dmn-g3taPW-17" value="Display Error" style="whiteSpace=wrap;html=1;strokeWidth=2;" parent="1" vertex="1">
          <mxGeometry x="130" y="485" width="120" height="60" as="geometry" />
        </mxCell>
        <mxCell id="7VPWDLyuM5dmn-g3taPW-34" style="edgeStyle=orthogonalEdgeStyle;rounded=0;orthogonalLoop=1;jettySize=auto;html=1;exitX=1;exitY=0.5;exitDx=0;exitDy=0;entryX=1;entryY=0.5;entryDx=0;entryDy=0;" parent="1" source="7VPWDLyuM5dmn-g3taPW-19" target="7VPWDLyuM5dmn-g3taPW-8" edge="1">
          <mxGeometry relative="1" as="geometry">
            <Array as="points">
              <mxPoint x="700" y="646" />
              <mxPoint x="700" y="200" />
            </Array>
          </mxGeometry>
        </mxCell>
        <mxCell id="7VPWDLyuM5dmn-g3taPW-45" value="" style="edgeStyle=orthogonalEdgeStyle;rounded=0;orthogonalLoop=1;jettySize=auto;html=1;" parent="1" source="7VPWDLyuM5dmn-g3taPW-19" target="7VPWDLyuM5dmn-g3taPW-44" edge="1">
          <mxGeometry relative="1" as="geometry" />
        </mxCell>
        <mxCell id="7VPWDLyuM5dmn-g3taPW-19" value="Run" style="whiteSpace=wrap;html=1;strokeWidth=2;" parent="1" vertex="1">
          <mxGeometry x="310" y="616" width="120" height="60" as="geometry" />
        </mxCell>
        <mxCell id="7VPWDLyuM5dmn-g3taPW-39" value="" style="edgeStyle=orthogonalEdgeStyle;rounded=0;orthogonalLoop=1;jettySize=auto;html=1;" parent="1" target="7VPWDLyuM5dmn-g3taPW-15" edge="1">
          <mxGeometry relative="1" as="geometry">
            <mxPoint x="370" y="370" as="sourcePoint" />
          </mxGeometry>
        </mxCell>
        <mxCell id="7VPWDLyuM5dmn-g3taPW-41" value="" style="edgeStyle=orthogonalEdgeStyle;rounded=0;orthogonalLoop=1;jettySize=auto;html=1;" parent="1" edge="1">
          <mxGeometry relative="1" as="geometry">
            <mxPoint x="421" y="334" as="sourcePoint" />
            <mxPoint x="496" y="334" as="targetPoint" />
          </mxGeometry>
        </mxCell>
        <mxCell id="PzCG7tM9qUY0DYqf-dbV-1" style="edgeStyle=orthogonalEdgeStyle;rounded=0;orthogonalLoop=1;jettySize=auto;html=1;exitX=0.25;exitY=0;exitDx=0;exitDy=0;entryX=1;entryY=0.75;entryDx=0;entryDy=0;" edge="1" parent="1" source="7VPWDLyuM5dmn-g3taPW-40" target="7VPWDLyuM5dmn-g3taPW-8">
          <mxGeometry relative="1" as="geometry">
            <Array as="points">
              <mxPoint x="530" y="212" />
            </Array>
          </mxGeometry>
        </mxCell>
        <mxCell id="7VPWDLyuM5dmn-g3taPW-40" value="Run" style="whiteSpace=wrap;html=1;" parent="1" vertex="1">
          <mxGeometry x="500" y="305" width="120" height="60" as="geometry" />
        </mxCell>
        <mxCell id="7VPWDLyuM5dmn-g3taPW-42" value="Yes" style="text;html=1;strokeColor=none;fillColor=none;align=center;verticalAlign=middle;whiteSpace=wrap;rounded=0;" parent="1" vertex="1">
          <mxGeometry x="430" y="300" width="60" height="20" as="geometry" />
        </mxCell>
        <mxCell id="7VPWDLyuM5dmn-g3taPW-44" value="Display Result" style="whiteSpace=wrap;html=1;strokeWidth=2;" parent="1" vertex="1">
          <mxGeometry x="310" y="756" width="120" height="60" as="geometry" />
        </mxCell>
        <mxCell id="7VPWDLyuM5dmn-g3taPW-46" value="No" style="text;html=1;strokeColor=none;fillColor=none;align=center;verticalAlign=middle;whiteSpace=wrap;rounded=0;" parent="1" vertex="1">
          <mxGeometry x="370" y="400" width="40" height="20" as="geometry" />
        </mxCell>
        <mxCell id="7VPWDLyuM5dmn-g3taPW-47" value="Check against&lt;br&gt;built-ins" style="rhombus;whiteSpace=wrap;html=1;strokeWidth=2;" parent="1" vertex="1">
          <mxGeometry x="320" y="290" width="100" height="90" as="geometry" />
        </mxCell>
        <mxCell id="7VPWDLyuM5dmn-g3taPW-49" value="No" style="text;html=1;strokeColor=none;fillColor=none;align=center;verticalAlign=middle;whiteSpace=wrap;rounded=0;" parent="1" vertex="1">
          <mxGeometry x="270" y="485" width="40" height="20" as="geometry" />
        </mxCell>
        <mxCell id="7VPWDLyuM5dmn-g3taPW-52" value="Yes" style="text;html=1;strokeColor=none;fillColor=none;align=center;verticalAlign=middle;whiteSpace=wrap;rounded=0;" parent="1" vertex="1">
          <mxGeometry x="370" y="565" width="30" height="20" as="geometry" />
        </mxCell>
      </root>
    </mxGraphModel>
  </diagram>
</mxfile>
